<?xml version="1.0" encoding="UTF-8" standalone="no"?>
<!DOCTYPE svg PUBLIC "-//W3C//DTD SVG 1.1//EN" "http://www.w3.org/Graphics/SVG/1.1/DTD/svg11.dtd">
<!-- Generated by Microsoft Visio, SVG Export arch_main.svg Page-1 -->
<svg xmlns="http://www.w3.org/2000/svg" xmlns:xlink="http://www.w3.org/1999/xlink" xmlns:ev="http://www.w3.org/2001/xml-events"
		xmlns:v="http://schemas.microsoft.com/visio/2003/SVGExtensions/" width="11.6929in" height="8.26772in"
		viewBox="0 0 841.89 595.276" xml:space="preserve" color-interpolation-filters="sRGB" class="st17">
	<v:documentProperties v:langID="1033" v:metric="true" v:viewMarkup="false">
		<v:userDefs>
			<v:ud v:nameU="msvSubprocessMaster" v:prompt="" v:val="VT4(Rectangle)"/>
			<v:ud v:nameU="msvNoAutoConnect" v:val="VT0(1):26"/>
		</v:userDefs>
	</v:documentProperties>

	<style type="text/css">
	<![CDATA[
		.st1 {visibility:visible}
		.st2 {fill:#a5a5a5;fill-opacity:0.6;filter:url(#filter_2);stroke:#a5a5a5;stroke-opacity:0.6}
		.st3 {fill:#f2f2f2;stroke:#a13c33;stroke-width:1.25}
		.st4 {fill:#000000;font-family:Eras Light ITC;font-size:0.833336em}
		.st5 {marker-end:url(#mrkr4-24);stroke:#a13c33;stroke-linecap:round;stroke-linejoin:round;stroke-width:1}
		.st6 {fill:#a13c33;fill-opacity:1;stroke:#a13c33;stroke-opacity:1;stroke-width:0.28409090909091}
		.st7 {fill:#ffffff;stroke:none;stroke-linecap:butt;stroke-width:7.2}
		.st8 {fill:#ff0000;font-family:Eras Light ITC;font-size:0.666664em}
		.st9 {fill:#ffffff;stroke:none;stroke-linecap:butt}
		.st10 {fill:#000000;font-family:Eras Light ITC;font-size:1.00001em}
		.st11 {fill:#863029;stroke:none;stroke-linecap:butt;stroke-width:0.75}
		.st12 {fill:#f3edec}
		.st13 {stroke:#863029;stroke-linecap:butt;stroke-width:1.25}
		.st14 {fill:#a5a5a5;fill-opacity:0.6;filter:url(#filter_2)}
		.st15 {fill:#a13c34}
		.st16 {fill:#f2f2f2;stroke:#a13c34;stroke-width:1.25}
		.st17 {fill:none;fill-rule:evenodd;font-size:12px;overflow:visible;stroke-linecap:square;stroke-miterlimit:3}
	]]>
	</style>

	<defs id="Markers">
		<g id="lend4">
			<path d="M 2 1 L 0 0 L 2 -1 L 2 1 " style="stroke:none"/>
		</g>
		<marker id="mrkr4-24" class="st6" v:arrowType="4" v:arrowSize="2" v:setback="7.04" refX="-7.04" orient="auto"
				markerUnits="strokeWidth" overflow="visible">
			<use xlink:href="#lend4" transform="scale(-3.52,-3.52) "/>
		</marker>
	</defs>
	<defs id="Filters">
		<filter id="filter_2">
			<feGaussianBlur stdDeviation="2"/>
		</filter>
	</defs>
	<g v:mID="0" v:index="1" v:groupContext="foregroundPage">
		<v:userDefs>
			<v:ud v:nameU="msvThemeOrder" v:val="VT0(0):26"/>
		</v:userDefs>
		<title>Page-1</title>
		<v:pageProperties v:drawingScale="0.0393701" v:pageScale="0.0393701" v:drawingUnits="24" v:shadowOffsetX="8.50394"
				v:shadowOffsetY="-8.50394"/>
		<v:layer v:name="Connector" v:index="0"/>
		<g id="shape1-1" v:mID="1" v:groupContext="shape" transform="translate(204.137,-251.707)">
			<title>Rectangle</title>
			<desc>User</desc>
			<v:userDefs>
				<v:ud v:nameU="visVersion" v:val="VT0(15):26"/>
			</v:userDefs>
			<v:textBlock v:margins="rect(4,4,4,4)" v:tabSpace="42.5197"/>
			<v:textRect cx="56.6929" cy="552.756" width="113.39" height="85.0394"/>
			<g id="shadow1-2" v:groupContext="shadow" v:shadowOffsetX="1.22561E-016" v:shadowOffsetY="-2.00157" v:shadowType="1"
					transform="matrix(1,0,0,1,0,2.00157)" class="st1">
				<rect x="0" y="510.236" width="113.386" height="85.0394" class="st2"/>
			</g>
			<rect x="0" y="510.236" width="113.386" height="85.0394" class="st3"/>
			<text x="47.29" y="555.76" class="st4" v:langID="7177"><v:paragraph v:horizAlign="1"/><v:tabList/>User</text>		</g>
		<g id="shape2-7" v:mID="2" v:groupContext="shape" transform="translate(388.389,-251.707)">
			<title>Rectangle.2</title>
			<desc>Software</desc>
			<v:userDefs>
				<v:ud v:nameU="visVersion" v:val="VT0(15):26"/>
			</v:userDefs>
			<v:textBlock v:margins="rect(4,4,4,4)" v:tabSpace="42.5197"/>
			<v:textRect cx="56.6929" cy="552.756" width="113.39" height="85.0394"/>
			<g id="shadow2-8" v:groupContext="shadow" v:shadowOffsetX="1.22561E-016" v:shadowOffsetY="-2.00157" v:shadowType="1"
					transform="matrix(1,0,0,1,0,2.00157)" class="st1">
				<rect x="0" y="510.236" width="113.386" height="85.0394" class="st2"/>
			</g>
			<rect x="0" y="510.236" width="113.386" height="85.0394" class="st3"/>
			<text x="38.44" y="555.76" class="st4" v:langID="7177"><v:paragraph v:horizAlign="1"/><v:tabList/>Software</text>		</g>
		<g id="shape3-13" v:mID="3" v:groupContext="shape" transform="translate(572.641,-251.707)">
			<title>Rectangle.3</title>
			<desc>Music</desc>
			<v:userDefs>
				<v:ud v:nameU="visVersion" v:val="VT0(15):26"/>
			</v:userDefs>
			<v:textBlock v:margins="rect(4,4,4,4)" v:tabSpace="42.5197"/>
			<v:textRect cx="56.6929" cy="552.756" width="113.39" height="85.0394"/>
			<g id="shadow3-14" v:groupContext="shadow" v:shadowOffsetX="1.22561E-016" v:shadowOffsetY="-2.00157" v:shadowType="1"
					transform="matrix(1,0,0,1,0,2.00157)" class="st1">
				<rect x="0" y="510.236" width="113.386" height="85.0394" class="st2"/>
			</g>
			<rect x="0" y="510.236" width="113.386" height="85.0394" class="st3"/>
			<text x="44.71" y="555.76" class="st4" v:langID="7177"><v:paragraph v:horizAlign="1"/><v:tabList/>Music</text>		</g>
		<g id="shape4-19" v:mID="4" v:groupContext="shape" v:layerMember="0" transform="translate(317.523,-287.14)">
			<title>Dynamic connector</title>
			<desc>IF 1.0</desc>
			<v:textBlock v:margins="rect(4,4,4,4)" v:tabSpace="42.5197"/>
			<v:textRect cx="35.4331" cy="588.189" width="40" height="17.6036"/>
			<path d="M0 588.19 L63.83 588.19" class="st5"/>
			<rect v:rectContext="textBkgnd" x="26.5424" y="583.389" width="17.7814" height="9.59985" class="st7"/>
			<text x="26.54" y="590.59" class="st8" v:langID="7177"><v:paragraph v:horizAlign="1"/><v:tabList/>IF 1.0</text>		</g>
		<g id="shape5-27" v:mID="5" v:groupContext="shape" v:layerMember="0" transform="translate(501.775,-287.14)">
			<title>Dynamic connector.5</title>
			<desc>IF 2.0</desc>
			<v:textBlock v:margins="rect(4,4,4,4)" v:tabSpace="42.5197"/>
			<v:textRect cx="35.4331" cy="588.189" width="40" height="17.6036"/>
			<path d="M0 588.19 L63.83 588.19" class="st5"/>
			<rect v:rectContext="textBkgnd" x="26.5424" y="583.389" width="17.7814" height="9.59985" class="st9"/>
			<text x="26.54" y="590.59" class="st8" v:langID="7177"><v:paragraph v:horizAlign="1"/><v:tabList/>IF 2.0</text>		</g>
		<g id="shape7-34" v:mID="7" v:groupContext="shape" v:layerMember="0" transform="translate(629.334,-329.66)">
			<title>Dynamic connector.7</title>
			<desc>IF 3.0</desc>
			<v:textBlock v:margins="rect(4,4,4,4)" v:tabSpace="42.5197"/>
			<v:textRect cx="-184.252" cy="517.323" width="40" height="17.6036"/>
			<path d="M0 588.19 L0 517.32 L-368.5 517.32 L-368.5 581.15" class="st5"/>
			<rect v:rectContext="textBkgnd" x="-193.143" y="512.523" width="17.7814" height="9.59985" class="st7"/>
			<text x="-193.14" y="519.72" class="st8" v:langID="7177"><v:paragraph v:horizAlign="1"/><v:tabList/>IF 3.0</text>		</g>
		<g id="shape8-41" v:mID="8" v:groupContext="shape" transform="translate(184.83,-226.772)">
			<title>Sheet.8</title>
			<desc>FU 1.0</desc>
			<v:textBlock v:margins="rect(4,4,4,4)" v:tabSpace="42.5197"/>
			<v:textRect cx="76" cy="585.276" width="152.01" height="20"/>
			<g id="shadow8-42" v:groupContext="shadow" v:shadowOffsetX="1.22561E-016" v:shadowOffsetY="-2.00157" v:shadowType="1"
					transform="matrix(1,0,0,1,0,2.00157)" class="st1">
				<rect x="0" y="575.276" width="152" height="20" class="st2"/>
			</g>
			<rect x="0" y="575.276" width="152" height="20" class="st3"/>
			<text x="59.69" y="588.88" class="st10" v:langID="7177"><v:paragraph v:horizAlign="1"/><v:tabList/>FU 1.0</text>		</g>
		<g id="shape9-47" v:mID="9" v:groupContext="shape" transform="translate(369.082,-227.534)">
			<title>Sheet.9</title>
			<desc>FU 2.0</desc>
			<v:textBlock v:margins="rect(4,4,4,4)" v:tabSpace="42.5197"/>
			<v:textRect cx="76" cy="585.276" width="152" height="20"/>
			<g id="shadow9-48" v:groupContext="shadow" v:shadowOffsetX="1.22561E-016" v:shadowOffsetY="-2.00157" v:shadowType="1"
					transform="matrix(1,0,0,1,0,2.00157)" class="st1">
				<rect x="0" y="575.276" width="152" height="20" class="st2"/>
			</g>
			<rect x="0" y="575.276" width="152" height="20" class="st3"/>
			<text x="59.69" y="588.88" class="st10" v:langID="7177"><v:paragraph v:horizAlign="1"/><v:tabList/>FU 2.0</text>		</g>
		<g id="shape10-53" v:mID="10" v:groupContext="shape" transform="translate(553.334,-227.534)">
			<title>Sheet.10</title>
			<desc>FU 3.0</desc>
			<v:textBlock v:margins="rect(4,4,4,4)" v:tabSpace="42.5197"/>
			<v:textRect cx="76" cy="585.276" width="152" height="20"/>
			<g id="shadow10-54" v:groupContext="shadow" v:shadowOffsetX="1.22561E-016" v:shadowOffsetY="-2.00157" v:shadowType="1"
					transform="matrix(1,0,0,1,0,2.00157)" class="st1">
				<rect x="0" y="575.276" width="152" height="20" class="st2"/>
			</g>
			<rect x="0" y="575.276" width="152" height="20" class="st3"/>
			<text x="59.69" y="588.88" class="st10" v:langID="7177"><v:paragraph v:horizAlign="1"/><v:tabList/>FU 3.0</text>		</g>
		<g id="shape11-59" v:mID="11" v:groupContext="shape" transform="translate(646.767,-278.222)">
			<title>Volume up</title>
			<v:userDefs>
				<v:ud v:nameU="msvShapeCategories" v:prompt="" v:val="VT4(Icon)"/>
				<v:ud v:nameU="visVersion" v:prompt="" v:val="VT0(15):26"/>
			</v:userDefs>
			<path d="M16.18 563.67 L7.29 572.88 L2.1 572.88 A2.10292 2.13657 -180 0 0 -0 575.01 L0 583.53 A2.10292 2.13657 -180 0
						 0 2.1 585.66 L7.29 585.66 L16.18 594.87 a0.919307 0.934016 -180 0 0 1.63757 -0.79993 L17.82 564.47 a0.919179
						 0.933886 -180 0 0 -1.63757 -0.79993 ZM15.72 591.35 L8.17 583.53 L2.1 583.53 L2.1 575.01 L8.17 575.01 L15.73
						 567.19 A180089 182970 0 0 1 15.72 591.35 ZM23.94 570.11 L23.27 570.93 A10.4628 10.6302 0 0 1 27.26 579.27
						 A10.4612 10.6285 0 0 1 23.35 587.55 L23.94 588.43 A11.5039 11.6879 -180 0 0 28.31 579.27 A11.5101 11.6943
						 -180 0 0 23.94 570.11 ZM27.3 566.01 L26.62 566.83 A15.6985 15.9497 0 0 1 32.5 579.27 A15.6941 15.9452 0
						 0 1 26.32 591.94 L26.91 592.83 A16.7297 16.9974 -180 0 0 33.55 579.27 A16.7342 17.0019 -180 0 0 27.3 566.01
						 ZM20.58 574.2 L19.92 575.01 L19.92 575.04 A5.221 5.30454 0 0 1 22.02 579.27 A5.21325 5.29667 0 0 1 20.37
						 583.13 L20.97 584.02 A6.26923 6.36954 -180 0 0 23.06 579.27 A6.277 6.37743 -180 0 0 20.58 574.2 Z"
					class="st11"/>
		</g>
		<g id="shape12-61" v:mID="12" v:groupContext="shape" transform="translate(221.102,-264.751)">
			<title>User</title>
			<v:userDefs>
				<v:ud v:nameU="visDescription" v:val="VT4(Use to add a system user to your system diagram.)"/>
				<v:ud v:nameU="visVersion" v:val="VT0(15):26"/>
			</v:userDefs>
			<path d="M5.36 541.68 A5.35919 5.35919 0 0 1 16.08 541.68 A5.35919 5.35919 0 0 1 5.36 541.68 Z" class="st12"/>
			<path d="M0 552.4 L21.44 552.4" class="st13"/>
			<path d="M10.72 573.84 L21.44 595.28" class="st13"/>
			<path d="M10.72 547.04 L10.72 573.84 L0 595.28" class="st13"/>
			<path d="M5.36 541.68 A5.35919 5.35919 0 0 1 16.08 541.68 A5.35919 5.35919 0 0 1 5.36 541.68" class="st13"/>
		</g>
		<g id="group13-67" transform="translate(428.308,-303.198)" v:mID="13" v:groupContext="group">
			<v:custProps>
				<v:cp v:nameU="AssetNumber" v:lbl="Asset Number" v:prompt="" v:type="0" v:format="" v:sortKey="Asset"
						v:invis="false" v:ask="false" v:langID="1033" v:cal="0"/>
				<v:cp v:nameU="SerialNumber" v:lbl="Serial Number" v:prompt="" v:type="0" v:format="" v:sortKey="Asset"
						v:invis="false" v:ask="false" v:langID="1033" v:cal="0"/>
				<v:cp v:nameU="Location" v:lbl="Location" v:prompt="" v:type="0" v:format="" v:sortKey="Asset" v:invis="false"
						v:ask="false" v:langID="1033" v:cal="0"/>
				<v:cp v:nameU="Building" v:lbl="Building" v:prompt="" v:type="0" v:format="" v:sortKey="Asset" v:invis="false"
						v:ask="false" v:langID="1033" v:cal="0"/>
				<v:cp v:nameU="Room" v:lbl="Room" v:prompt="" v:type="0" v:format="" v:sortKey="Asset" v:invis="false"
						v:ask="false" v:langID="1033" v:cal="0"/>
				<v:cp v:nameU="Manufacturer" v:lbl="Manufacturer" v:prompt="" v:type="0" v:format="" v:sortKey="Equipment"
						v:invis="false" v:ask="false" v:langID="1033" v:cal="0"/>
				<v:cp v:nameU="ProductNumber" v:lbl="Product Number" v:prompt="" v:type="0" v:format="" v:sortKey="Equipment"
						v:invis="false" v:ask="false" v:langID="1033" v:cal="0"/>
				<v:cp v:nameU="PartNumber" v:lbl="Part Number" v:prompt="" v:type="0" v:format="" v:sortKey="Equipment"
						v:invis="false" v:ask="false" v:langID="1033" v:cal="0"/>
				<v:cp v:nameU="ProductDescription" v:lbl="Product Description" v:prompt="" v:type="0" v:format=""
						v:sortKey="Equipment" v:invis="false" v:ask="false" v:langID="1033" v:cal="0"/>
				<v:cp v:nameU="NetworkName" v:lbl="Network Name" v:prompt="" v:type="0" v:format="" v:sortKey="Network"
						v:invis="false" v:ask="false" v:langID="1033" v:cal="0"/>
				<v:cp v:nameU="IPAddress" v:lbl="IP Address" v:prompt="" v:type="0" v:format="" v:sortKey="Network" v:invis="false"
						v:ask="false" v:langID="1033" v:cal="0"/>
				<v:cp v:nameU="SubnetMask" v:lbl="Subnet Mask" v:prompt="" v:type="0" v:format="" v:sortKey="Network"
						v:invis="false" v:ask="false" v:langID="1033" v:cal="0"/>
				<v:cp v:nameU="AdminInterface" v:lbl="Administrative Interface" v:prompt="" v:type="0" v:format=""
						v:sortKey="Network" v:invis="false" v:ask="false" v:langID="1033" v:cal="0"/>
				<v:cp v:nameU="NumberofPorts" v:lbl="Number of Ports" v:prompt="" v:type="0" v:format="" v:sortKey="Network"
						v:invis="false" v:ask="false" v:langID="1033" v:cal="0"/>
				<v:cp v:nameU="CommunityString" v:lbl="Community String" v:prompt="" v:type="0" v:format="" v:sortKey="Network"
						v:invis="false" v:ask="false" v:langID="1033" v:cal="0"/>
				<v:cp v:nameU="NetworkDescription" v:lbl="Network Description" v:prompt="" v:type="0" v:format=""
						v:sortKey="Network" v:invis="false" v:ask="false" v:langID="1033" v:cal="0"/>
				<v:cp v:nameU="MACAddress" v:lbl="MAC Address" v:prompt="" v:type="0" v:format="" v:sortKey="Network"
						v:invis="false" v:ask="false" v:langID="1033" v:cal="0"/>
				<v:cp v:nameU="CPU" v:lbl="CPU" v:prompt="" v:type="0" v:format="" v:sortKey="Workstation" v:invis="false"
						v:ask="false" v:langID="1033" v:cal="0"/>
				<v:cp v:nameU="Memory" v:lbl="Memory" v:prompt="" v:type="0" v:format="" v:sortKey="Workstation" v:invis="false"
						v:ask="false" v:langID="1033" v:cal="0"/>
				<v:cp v:nameU="OperatingSystem" v:lbl="Operating System" v:prompt="" v:type="0" v:format="" v:sortKey="Workstation"
						v:invis="false" v:ask="false" v:langID="1033" v:cal="0"/>
				<v:cp v:nameU="HardDriveSize" v:lbl="Hard Drive Capacity" v:prompt="" v:type="0" v:format=""
						v:sortKey="Workstation" v:invis="false" v:ask="false" v:langID="1033" v:cal="0"/>
				<v:cp v:nameU="ShapeClass" v:lbl="ShapeClass" v:prompt="" v:type="0" v:format="" v:sortKey="" v:invis="true"
						v:ask="false" v:langID="1033" v:cal="0" v:val="VT4(Equipment)"/>
				<v:cp v:nameU="ShapeType" v:lbl="ShapeType" v:prompt="" v:type="0" v:format="" v:sortKey="" v:invis="true"
						v:ask="false" v:langID="1033" v:cal="0" v:val="VT4(Computer)"/>
				<v:cp v:nameU="SubShapeType" v:lbl="SubShapeType" v:prompt="" v:type="0" v:format="" v:sortKey="" v:invis="true"
						v:ask="false" v:langID="1033" v:cal="0" v:val="VT4(Laptop)"/>
			</v:custProps>
			<v:userDefs>
				<v:ud v:nameU="visVersion" v:prompt="" v:val="VT0(15):26"/>
				<v:ud v:nameU="ShapeClass" v:prompt="" v:val="VT0(5):26"/>
				<v:ud v:nameU="SolSH" v:prompt="" v:val="VT15({BF0433D9-CD73-4EB5-8390-8653BE590246}):41"/>
				<v:ud v:nameU="visLegendShape" v:prompt="" v:val="VT0(2):26"/>
			</v:userDefs>
			<title>Laptop</title>
			<g id="shape14-68" v:mID="14" v:groupContext="shape" transform="translate(0,-3.1062)">
				<title>Sheet.14</title>
				<g id="shadow14-69" v:groupContext="shadow" v:shadowOffsetX="1.22561E-016" v:shadowOffsetY="-2.00157"
						v:shadowType="1" transform="matrix(1,0,0,1,0,2.00157)" class="st1">
					<path d="M0 595.28 L33.55 595.28 L33.55 591.76 L30.68 586.9 L2.71 586.9 L0 591.76 L0 595.28 ZM30.77 586.1 L30.77
								 570.75 C30.77 569.2 29.51 567.94 27.96 567.94 L5.51 567.94 C3.96 567.94 2.7 569.2 2.7 570.75 L2.7
								 586.1 L30.77 586.1 Z" class="st2"/>
				</g>
				<path d="M0 595.28 L33.55 595.28 L33.55 591.76 L30.68 586.9 L2.71 586.9 L0 591.76 L0 595.28 ZM30.77 586.1 L30.77
							 570.75 C30.77 569.2 29.51 567.94 27.96 567.94 L5.51 567.94 C3.96 567.94 2.7 569.2 2.7 570.75 L2.7 586.1
							 L30.77 586.1 Z" class="st3"/>
			</g>
			<g id="shape15-73" v:mID="15" v:groupContext="shape" transform="translate(3.30078,-7.01862)">
				<title>Sheet.15</title>
				<v:userDefs>
					<v:ud v:nameU="SurroundingRegionColor" v:prompt="" v:val="VT5(1)"/>
					<v:ud v:nameU="SurroundingRegionColor" v:prompt="" v:val="VT5(#f2f2f2)"/>
				</v:userDefs>
				<g id="shadow15-74" v:groupContext="shadow" v:shadowOffsetX="1.22561E-016" v:shadowOffsetY="-2.00157"
						v:shadowType="1" transform="matrix(1,0,0,1,0,2.00157)" class="st1">
					<path d="M1.35 592.85 L0 595.28 L26.89 595.28 L25.53 592.85 L1.35 592.85 Z" class="st14"/>
				</g>
				<path d="M1.35 592.85 L0 595.28 L26.89 595.28 L25.53 592.85 L1.35 592.85 Z" class="st15"/>
			</g>
			<g id="shape16-81" v:mID="16" v:groupContext="shape" transform="translate(5.40902,-15.1991)">
				<title>Sheet.16</title>
				<v:userDefs>
					<v:ud v:nameU="SurroundingRegionColor" v:prompt="" v:val="VT5(1)"/>
					<v:ud v:nameU="SurroundingRegionColor" v:prompt="" v:val="VT5(#f2f2f2)"/>
				</v:userDefs>
				<g id="shadow16-82" v:groupContext="shadow" v:shadowOffsetX="1.22561E-016" v:shadowOffsetY="-2.00157"
						v:shadowType="1" transform="matrix(1,0,0,1,0,2.00157)" class="st1">
					<rect x="0" y="582.659" width="22.7304" height="12.6166" class="st2"/>
				</g>
				<rect x="0" y="582.659" width="22.7304" height="12.6166" class="st16"/>
			</g>
		</g>
	</g>
</svg>
